# xmcd CD database file
#
# Track frame offsets:
#	150
#	15154
#	29958
#	44206
#	57307
#	71171
#	85556
#	96782
#	110769
#	125769
#	139123
#	154148
#	168371
#	181869
#	195924
#	209915
#	224086
#	239153
#
# Disc length: 3337 seconds
#
# Revision: 0
# Processed by: cddbd v1.5PL3 Copyright (c) Steve Scherf et al.
# Submitted via: CDex 1.51
#
DISCID=190d0712
DTITLE=Ella Fitsgerald - Ella et Les Grands Classiques
DYEAR=1900
DGENRE=Jazz
TTITLE0=Sentimental Journey
TTITLE1=How High The Moon
TTITLE2=You'll Never Know
TTITLE3=A Guy Is A Guy
TTITLE4=Crying In The Chapel
TTITLE5=(I Love You) For Sentimental Reasons
TTITLE6=Happy Talk
TTITLE7=Makin' Whoopee
TTITLE8=My Happiness
TTITLE9=Until The Real Thing Comes
TTITLE10=I Didn't Mean A Word I Said
TTITLE11=Basin Street Blues
TTITLE12=Old Devil Moon
TTITLE13=Smooth Sailing
TTITLE14=Black Coffee
TTITLE15=Taking A Chance On Love
TTITLE16=Undecided
TTITLE17=Thanks For The Memory
EXTD=
EXTT0=
EXTT1=
EXTT2=
EXTT3=
EXTT4=
EXTT5=
EXTT6=
EXTT7=
EXTT8=
EXTT9=
EXTT10=
EXTT11=
EXTT12=
EXTT13=
EXTT14=
EXTT15=
EXTT16=
EXTT17=
PLAYORDER=
